<mxfile host="Electron" agent="Mozilla/5.0 (Windows NT 10.0; Win64; x64) AppleWebKit/537.36 (KHTML, like Gecko) draw.io/24.7.17 Chrome/128.0.6613.36 Electron/32.0.1 Safari/537.36" version="24.7.17">
  <diagram name="Page-1" id="q9Bkf-C0yQ_XOIvApOBx">
    <mxGraphModel dx="1102" dy="570" grid="1" gridSize="10" guides="1" tooltips="1" connect="1" arrows="1" fold="1" page="1" pageScale="1" pageWidth="850" pageHeight="1100" math="0" shadow="0">
      <root>
        <mxCell id="0" />
        <mxCell id="1" parent="0" />
        <mxCell id="rxV2wudH6vgPr44UF2XU-1" value="CourseProposal" style="rounded=1;arcSize=10;whiteSpace=wrap;html=1;align=center;" vertex="1" parent="1">
          <mxGeometry x="360" y="440" width="100" height="40" as="geometry" />
        </mxCell>
        <mxCell id="rxV2wudH6vgPr44UF2XU-2" value="User" style="ellipse;whiteSpace=wrap;html=1;align=center;" vertex="1" parent="1">
          <mxGeometry x="250" y="320" width="100" height="40" as="geometry" />
        </mxCell>
        <mxCell id="rxV2wudH6vgPr44UF2XU-3" value="Title" style="ellipse;whiteSpace=wrap;html=1;align=center;" vertex="1" parent="1">
          <mxGeometry x="360" y="320" width="100" height="40" as="geometry" />
        </mxCell>
        <mxCell id="rxV2wudH6vgPr44UF2XU-4" value="Teacher" style="ellipse;whiteSpace=wrap;html=1;align=center;" vertex="1" parent="1">
          <mxGeometry x="470" y="320" width="100" height="40" as="geometry" />
        </mxCell>
        <mxCell id="rxV2wudH6vgPr44UF2XU-5" value="Category" style="ellipse;whiteSpace=wrap;html=1;align=center;" vertex="1" parent="1">
          <mxGeometry x="580" y="320" width="100" height="40" as="geometry" />
        </mxCell>
        <mxCell id="rxV2wudH6vgPr44UF2XU-6" value="Description" style="ellipse;whiteSpace=wrap;html=1;align=center;" vertex="1" parent="1">
          <mxGeometry x="140" y="320" width="100" height="40" as="geometry" />
        </mxCell>
        <mxCell id="rxV2wudH6vgPr44UF2XU-7" value="" style="endArrow=none;html=1;rounded=0;" edge="1" parent="1" source="rxV2wudH6vgPr44UF2XU-6" target="rxV2wudH6vgPr44UF2XU-1">
          <mxGeometry relative="1" as="geometry">
            <mxPoint x="230" y="410" as="sourcePoint" />
            <mxPoint x="390" y="410" as="targetPoint" />
          </mxGeometry>
        </mxCell>
        <mxCell id="rxV2wudH6vgPr44UF2XU-8" value="" style="endArrow=none;html=1;rounded=0;" edge="1" parent="1" source="rxV2wudH6vgPr44UF2XU-2" target="rxV2wudH6vgPr44UF2XU-1">
          <mxGeometry relative="1" as="geometry">
            <mxPoint x="230" y="366" as="sourcePoint" />
            <mxPoint x="383" y="450" as="targetPoint" />
          </mxGeometry>
        </mxCell>
        <mxCell id="rxV2wudH6vgPr44UF2XU-9" value="" style="endArrow=none;html=1;rounded=0;" edge="1" parent="1" source="rxV2wudH6vgPr44UF2XU-3" target="rxV2wudH6vgPr44UF2XU-1">
          <mxGeometry relative="1" as="geometry">
            <mxPoint x="327" y="369" as="sourcePoint" />
            <mxPoint x="402" y="450" as="targetPoint" />
          </mxGeometry>
        </mxCell>
        <mxCell id="rxV2wudH6vgPr44UF2XU-10" value="" style="endArrow=none;html=1;rounded=0;" edge="1" parent="1" source="rxV2wudH6vgPr44UF2XU-4" target="rxV2wudH6vgPr44UF2XU-1">
          <mxGeometry relative="1" as="geometry">
            <mxPoint x="420" y="370" as="sourcePoint" />
            <mxPoint x="420" y="450" as="targetPoint" />
          </mxGeometry>
        </mxCell>
        <mxCell id="rxV2wudH6vgPr44UF2XU-11" value="" style="endArrow=none;html=1;rounded=0;" edge="1" parent="1" source="rxV2wudH6vgPr44UF2XU-5" target="rxV2wudH6vgPr44UF2XU-1">
          <mxGeometry relative="1" as="geometry">
            <mxPoint x="513" y="369" as="sourcePoint" />
            <mxPoint x="438" y="450" as="targetPoint" />
          </mxGeometry>
        </mxCell>
        <mxCell id="rxV2wudH6vgPr44UF2XU-13" value="Liked" style="ellipse;shape=doubleEllipse;margin=3;whiteSpace=wrap;html=1;align=center;" vertex="1" parent="1">
          <mxGeometry x="690" y="320" width="100" height="40" as="geometry" />
        </mxCell>
        <mxCell id="rxV2wudH6vgPr44UF2XU-14" value="Liker" style="ellipse;whiteSpace=wrap;html=1;align=center;" vertex="1" parent="1">
          <mxGeometry x="610" y="250" width="100" height="40" as="geometry" />
        </mxCell>
        <mxCell id="rxV2wudH6vgPr44UF2XU-15" value="" style="endArrow=none;html=1;rounded=0;" edge="1" parent="1" source="rxV2wudH6vgPr44UF2XU-14" target="rxV2wudH6vgPr44UF2XU-13">
          <mxGeometry relative="1" as="geometry">
            <mxPoint x="680" y="420" as="sourcePoint" />
            <mxPoint x="840" y="420" as="targetPoint" />
          </mxGeometry>
        </mxCell>
        <mxCell id="rxV2wudH6vgPr44UF2XU-16" value="" style="endArrow=none;html=1;rounded=0;" edge="1" parent="1" source="rxV2wudH6vgPr44UF2XU-1" target="rxV2wudH6vgPr44UF2XU-13">
          <mxGeometry relative="1" as="geometry">
            <mxPoint x="580" y="460" as="sourcePoint" />
            <mxPoint x="740" y="460" as="targetPoint" />
          </mxGeometry>
        </mxCell>
      </root>
    </mxGraphModel>
  </diagram>
</mxfile>
